# xmcd CD database file
#
# Track frame offsets:
#        183
#        22908
#        43743
#        62100
#        86193
#        113120
#        134030
#        151045
#
# Disc length: 2360 seconds
#
# Revision: 0
# Processed by: cddbd v1.5.2PL0 Copyright (c) Steve Scherf et al.
# Submitted via: CUERipper 2.1.5
#
DISCID=66093608
DTITLE=Ry Cooder - The Slide Area
DYEAR=1982
DGENRE=Blues Rock
TTITLE0=UFO Has Landed in the Ghetto
TTITLE1=I Need a Woman
TTITLE2=Gypsy Woman
TTITLE3=Blue Suede Shoes
TTITLE4=Mama, Don't Treat Your Daughter Mean
TTITLE5=I'm Drinking Again
TTITLE6=Which Came First
TTITLE7=That's the Way Love Turned Out for Me
EXTD=
EXTT0=
EXTT1=
EXTT2=
EXTT3=
EXTT4=
EXTT5=
EXTT6=
EXTT7=
PLAYORDER=
